<?xml version="1.0" encoding="utf-8"?>
<!-- Generator: Adobe Illustrator 26.4.1, SVG Export Plug-In . SVG Version: 6.00 Build 0)  -->
<svg version="1.1" id="Capa_1" xmlns="http://www.w3.org/2000/svg" xmlns:xlink="http://www.w3.org/1999/xlink" x="0px" y="0px"
	 viewBox="0 0 549.6 141.7" style="enable-background:new 0 0 549.6 141.7;" xml:space="preserve">
<style type="text/css">
	.st0{fill:#1D1D1B;}
</style>
<path class="st0" d="M460,82.5c0,9.7,6.3,11.2,15.1,11.2h38.2c8.7,0,15.8-1.4,20.8-5.2c4.5-3.3,12.5-12.9,9.1-19.3
	c-1.5-2.7-4.4-3.7-7.8-3.7c-11.4-0.3-27.1,0-39.1,0c-3.8,0-6.7,0.9-6.7-1.8c0-4.8,8.2-3.5,12.2-3.5h47.1c0.6-1.5,0.9-3.2,0.6-4.8
	c0-6.6-10.6-7.4-15.7-7.4h-40.4c-15.9,0-22.7,5.9-27.8,16.8c-3.2,6.7,0,11.7,7.3,12.1c5.4,0.3,42.3-0.3,44.5,0
	c3.2,0.5,2.3,4.5-2.8,4.4h-50C462.7,81.3,460,80.8,460,82.5 M1.5,83.2c0,7.4,4.8,9.4,9.5,9.9c10,1.2,22.9,0.7,32.9,0.7h6.9
	c5.6,0,11.2-0.5,16.8-1.5c2.9-0.7,5.7-1.9,8.1-3.7c1.4-1,5.8-5.1,5.8-6.4s-2-0.9-4.7-0.9H28.4c-5.4,0-3.4-2.9-0.1-11.4
	c4.1-10.7,2.3-9.8,14.2-9.8c6.9,0,44.7,0.5,48.1-0.3c0.6-1.4,0.8-3,0.6-4.5c0-7.1-11.4-7.4-18.9-7.4H38.1
	c-5.4-0.1-10.8,0.5-16.1,1.8C11.6,53,7.5,63.1,4.1,72.3C2.6,75.8,1.7,79.4,1.5,83.2 M156.4,60.4c0.1,1.4,0.4,1.5-0.2,3
	c-1.4,3.3-4.7,2.5-9.4,2.5H98.7c-0.8,1.6-7.6,20.6-8.9,24.2c-0.1,0.4-1.6,3.4-0.4,3.4l22.1,0.4c1.3-2.7,2.4-5.5,3.2-8.4l3.2-8.7
	c13.5,0,9.9-1.4,15.5,3.1c2.3,1.8,16.8,13.9,17.5,13.9c4.1,0,25.7,0,26.9-0.6c-0.4-1.4-5.1-5-6.4-6.1l-9.4-7.9
	c-0.6-0.4-1.1-0.8-1.6-1.3c-0.7-0.9-0.7-1.1,0.3-1.3s2.5-0.3,3.3-0.4c6.7-1.1,10.5-4.5,13.9-10.1c4.7-7.8,2.7-14.8-6.6-17.1
	c-4.2-1-14.5-1-19.5-1h-45.2c-2.3,0-2.4,2.3-3.6,5.4c-3.3,8.8-5.4,6.8,16.7,6.8C125.6,60.1,153.1,59.7,156.4,60.4 M270.8,93.4
	c6.3,0,12.4,0.2,18.7,0.4c4.5,0.1,4.1,0.2,5.9-5c0.9-2.7,6.7-17.9,7.2-20.1c2,0.2,18.8,18.6,22.4,22.1c3.6,3.5,0.7,2.8,14.5,2.8
	c16.3,0,15.5-7.2,21.4-22.2l8-21.9c0.3-1-0.1-1.3-1-1.4c-6.4-0.6-14.5-0.2-21-0.2c-1.4,0-2.3,4.1-3.2,6.5l-6.6,18.1
	c-0.4,1.3-0.9,2.5-1.5,3.7c-1.6-0.4-23-23.3-25.4-25.7c-3.2-3.1-4.2-2.5-6.9-2.5c-7.5-0.1-14-0.3-17.8,5.4
	c-1.6,2.4-11.1,28.8-12.5,33C271.9,88.6,271.2,91,270.8,93.4 M239.1,81.3h-30.4c-2.4,0-2.2-1.8-1.5-3.9c1.2-3.5,2.6-7.7,3.9-11.1
	s3.2-6.2,6.5-6.2h28.9c3,0,2.4,2.8,1,6.5c-1.3,3.4-2.6,7.6-4,10.8C242.4,79.5,241.1,81.3,239.1,81.3 M183,83.1
	c0,8.4,7.5,10,14.1,10.3c9.7,0.4,19.7,0.4,29.3,0.3h7.9c18.3,0,27.1-3.5,33.9-20.6c4.6-11.5,8.5-25.3-10.2-25.3h-42
	c-17.6,0-24,7.7-29.4,21.6C185.3,73.2,183,79.2,183,83.1 M422.9,81.3h-30.5c-3.5,0,1.3-9.8,2.6-13.4c1.3-3.6,2.2-7.7,7.4-7.7h28.5
	c0.5-0.1,1.1,0.1,1.5,0.4c0.4,0.3,0.6,0.7,0.8,1.2c-1.6,5.6-3.5,11-5.8,16.3C426.5,80,425.7,81.3,422.9,81.3 M367.4,83.2
	c0,7.6,6,9.7,12.2,10.2c7.5,0.6,17.3,0.4,24.9,0.4c6.2,0,12.4,0,14.2,0c13.1,0,21.1-1.8,27.3-8.9c2.8-3.5,5-7.5,6.6-11.7
	c4.1-10.3,9.1-25.2-9.9-25.2h-42.4c-17.4,0-24.5,7.9-29.4,21.6C369.6,73.4,367.3,78.3,367.4,83.2"/>
</svg>
